<?xml version="1.0" encoding="UTF-8"?>
<svg id="Layer_1" xmlns="http://www.w3.org/2000/svg" version="1.1" viewBox="0 0 778.19 80">
  <!-- Generator: Adobe Illustrator 29.4.0, SVG Export Plug-In . SVG Version: 2.1.0 Build 152)  -->
  <defs>
    <style>
      .st0 {
        opacity: .12;
      }

      .st0, .st1, .st2, .st3, .st4, .st5 {
        isolation: isolate;
      }

      .st0, .st6 {
        fill: #f0ebe0;
      }

      .st7, .st2, .st4 {
        fill: #1f9080;
      }

      .st1 {
        opacity: .3;
      }

      .st1, .st5 {
        fill: #d94f2a;
      }

      .st2, .st4 {
        opacity: .9;
      }

      .st4 {
        stroke: #1f9080;
        stroke-width: 2px;
      }

      .st5 {
        opacity: .7;
      }
    </style>
  </defs>
  <g class="st3">
    <path class="st6" d="M97.05,47.64h14.07c.24.72.94,1.33,2.11,1.83,1.17.5,2.74.88,4.72,1.13,1.98.26,4.27.39,6.88.39s4.61-.08,6.11-.23c1.49-.15,2.55-.43,3.17-.82.62-.39.93-.94.93-1.62s-.5-1.16-1.49-1.52c-1-.36-2.77-.61-5.31-.75-2.54-.14-6.12-.21-10.72-.21-3.44,0-6.4-.16-8.89-.49-2.49-.33-4.53-.84-6.13-1.55-1.6-.7-2.77-1.6-3.53-2.68-.76-1.08-1.13-2.38-1.13-3.89,0-2.61.88-4.77,2.65-6.47,1.77-1.7,4.45-2.97,8.04-3.81,3.59-.84,8.08-1.26,13.48-1.26,7.9,0,13.94,1.14,18.11,3.43,4.17,2.29,6.26,5.57,6.26,9.87h-13.35c-.17-1.13-1.24-2-3.2-2.6-1.96-.6-4.74-.9-8.35-.9s-6.23.21-7.96.62c-1.74.41-2.6,1.12-2.6,2.11,0,.52.24.93.72,1.24.48.31,1.31.56,2.5.75,1.19.19,2.86.32,5.02.39,2.16.07,4.91.1,8.25.1,3.68,0,6.8.18,9.38.54,2.58.36,4.66.9,6.26,1.62,1.6.72,2.76,1.64,3.48,2.76.72,1.12,1.08,2.43,1.08,3.94,0,2.61-.82,4.74-2.47,6.39-1.65,1.65-4.26,2.87-7.83,3.66-3.57.79-8.25,1.19-14.02,1.19-3.26,0-6.26-.19-8.99-.57-2.73-.38-5.16-.94-7.29-1.68-2.13-.74-3.93-1.65-5.41-2.73-1.48-1.08-2.6-2.3-3.38-3.66-.77-1.36-1.16-2.86-1.16-4.51Z"/>
    <path class="st6" d="M156.11,26.76h12.88v32.98h-12.88V26.76Z"/>
    <path class="st6" d="M219.96,55.83h-7.73l28.14-29.07h12.88v32.98h-12.88v-22.47l3.86,1.6-20.36,20.87h-15.46l-20.41-20.82,3.92-1.6v22.42h-12.88V26.76h12.88l28.03,29.07Z"/>
    <path class="st6" d="M293.45,26.76v23.19h30.04v9.79h-42.93V26.76h12.88Z"/>
    <path class="st6" d="M328.13,59.75l22.11-32.98h14.33l22.31,32.98h-14.17l-19.12-29.53h7.68l-18.97,29.53h-14.17ZM339.67,54.75v-7.73h35.25v7.73h-35.25Z"/>
    <path class="st6" d="M393.06,59.75V26.76h32.47c6.67,0,11.58.65,14.74,1.96,3.16,1.31,4.74,3.57,4.74,6.8,0,2.06-.68,3.64-2.04,4.74-1.36,1.1-3.3,1.86-5.82,2.29-2.53.43-5.56.7-9.1.8l.41-.41c2.58,0,4.96.07,7.16.21,2.2.14,4.12.45,5.77.93s2.94,1.22,3.86,2.22c.93,1,1.39,2.37,1.39,4.12,0,2.13-.76,3.88-2.27,5.26-1.51,1.37-3.66,2.4-6.44,3.07-2.78.67-6.06,1-9.84,1h-35.04ZM405.95,40.78h19.99c1.82,0,3.13-.17,3.94-.52.81-.34,1.21-.89,1.21-1.65s-.4-1.35-1.21-1.68c-.81-.33-2.12-.49-3.94-.49h-19.99v4.33ZM405.95,50.06h22.16c1.82,0,3.14-.17,3.94-.52.81-.34,1.21-.89,1.21-1.65,0-.52-.18-.93-.54-1.24-.36-.31-.92-.54-1.68-.7-.76-.15-1.74-.23-2.94-.23h-22.16v4.33Z"/>
  </g>
  <g class="st3">
    <path class="st7" d="M493.76,63.51c-7.7,0-14.19-.8-19.48-2.4-5.29-1.6-9.29-3.96-12.01-7.09-2.71-3.13-4.07-6.96-4.07-11.49s1.4-8.39,4.2-11.26c2.8-2.87,6.94-4.97,12.42-6.31,5.48-1.34,12.21-2.01,20.18-2.01s14.88.68,20.33,2.04c5.45,1.36,9.55,3.47,12.32,6.34,2.76,2.87,4.15,6.61,4.15,11.21,0,2.99-.56,5.38-1.68,7.16-1.12,1.79-2.66,3.08-4.64,3.89-1.98.81-4.29,1.21-6.93,1.21s-4.79-.32-6.55-.95-3.13-1.49-4.12-2.55c-1-1.06-1.71-2.22-2.14-3.48-.43-1.25-.64-2.5-.64-3.74v-10.36h12.37v9.02c0,1.07.09,2.04.28,2.91.19.88.55,1.57,1.08,2.09.53.52,1.33.77,2.4.77s1.92-.26,2.47-.77.92-1.19,1.11-2.01c.19-.82.28-1.68.28-2.58,0-2.99-.7-5.45-2.09-7.39-1.39-1.94-3.38-3.47-5.98-4.59-2.59-1.12-5.73-1.91-9.4-2.37-3.68-.46-7.78-.7-12.32-.7s-8.73.23-12.47.7c-3.75.46-6.95,1.24-9.61,2.32-2.66,1.08-4.72,2.55-6.16,4.41-1.44,1.86-2.17,4.19-2.17,7.01,0,3.44,1.12,6.33,3.35,8.68,2.23,2.35,5.51,4.13,9.82,5.33,4.31,1.2,9.59,1.8,15.85,1.8,2.23,0,4.4-.07,6.49-.21,2.09-.14,3.98-.31,5.64-.52,1.67-.21,2.95-.41,3.84-.62l2.01,5c-1,.21-2.42.43-4.28.67-1.86.24-3.98.44-6.36.59-2.39.15-4.89.23-7.5.23ZM487.01,54.03c-3.33,0-6.29-.45-8.86-1.37-2.58-.91-4.6-2.2-6.06-3.86-1.46-1.67-2.19-3.63-2.19-5.9s.71-4.17,2.14-5.82c1.43-1.65,3.41-2.92,5.95-3.81,2.54-.89,5.53-1.34,8.97-1.34,3.81,0,7.16.52,10.05,1.57,2.89,1.05,5.13,2.41,6.73,4.07,1.6,1.67,2.4,3.44,2.4,5.33,0,1.41-.46,2.78-1.37,4.12-.91,1.34-2.22,2.53-3.92,3.58-1.7,1.05-3.72,1.88-6.06,2.5-2.34.62-4.93.93-7.78.93ZM491.54,46.35c1.51,0,3.07-.06,4.66-.18,1.6-.12,3.07-.31,4.41-.57,1.34-.26,2.42-.6,3.25-1.03.82-.43,1.24-.97,1.24-1.62,0-.62-.42-1.14-1.26-1.57-.84-.43-1.93-.77-3.27-1.03s-2.8-.44-4.38-.54c-1.58-.1-3.13-.15-4.64-.15-2.96,0-5.16.23-6.62.7s-2.19,1.35-2.19,2.65.73,2.15,2.19,2.63c1.46.48,3.67.72,6.62.72Z"/>
    <path class="st7" d="M556.53,46.91h14.07c.24.72.94,1.33,2.11,1.83,1.17.5,2.74.88,4.71,1.13,1.98.26,4.27.39,6.88.39s4.61-.08,6.11-.23c1.49-.15,2.55-.43,3.17-.82.62-.39.93-.94.93-1.62s-.5-1.16-1.49-1.52c-1-.36-2.77-.61-5.31-.75s-6.12-.21-10.72-.21c-3.44,0-6.4-.16-8.89-.49s-4.54-.84-6.13-1.55c-1.6-.7-2.77-1.6-3.53-2.68-.76-1.08-1.13-2.38-1.13-3.89,0-2.61.88-4.77,2.65-6.47,1.77-1.7,4.45-2.97,8.04-3.81,3.59-.84,8.08-1.26,13.48-1.26,7.9,0,13.94,1.14,18.11,3.43,4.17,2.29,6.26,5.57,6.26,9.87h-13.35c-.17-1.13-1.24-2-3.2-2.6-1.96-.6-4.74-.9-8.35-.9s-6.23.21-7.96.62c-1.74.41-2.6,1.12-2.6,2.11,0,.52.24.93.72,1.24.48.31,1.31.56,2.5.75,1.19.19,2.86.32,5.02.39,2.16.07,4.91.1,8.25.1,3.68,0,6.8.18,9.38.54,2.58.36,4.66.9,6.26,1.62,1.6.72,2.76,1.64,3.48,2.76.72,1.12,1.08,2.43,1.08,3.94,0,2.61-.82,4.74-2.47,6.39-1.65,1.65-4.26,2.87-7.83,3.66-3.57.79-8.25,1.19-14.02,1.19-3.26,0-6.26-.19-8.99-.57-2.73-.38-5.16-.94-7.29-1.68-2.13-.74-3.93-1.65-5.41-2.73-1.48-1.08-2.6-2.3-3.38-3.66-.77-1.36-1.16-2.86-1.16-4.51Z"/>
    <path class="st7" d="M616.1,26.04h12.88v32.98h-12.88V26.04Z"/>
    <path class="st7" d="M685.88,40.21v-14.17h12.88v16.49c0,2.92-.54,5.4-1.62,7.45-1.08,2.04-2.59,3.73-4.51,5.05-1.92,1.32-4.14,2.34-6.65,3.07-2.51.72-5.2,1.23-8.07,1.52-2.87.29-5.78.44-8.73.44-3.13,0-6.15-.15-9.07-.44-2.92-.29-5.63-.8-8.12-1.52-2.49-.72-4.66-1.74-6.52-3.07-1.85-1.32-3.31-3.01-4.35-5.05-1.05-2.04-1.57-4.53-1.57-7.45v-16.49h12.88v14.17c0,2.75.67,4.84,2.01,6.29,1.34,1.44,3.25,2.43,5.75,2.96,2.49.53,5.49.8,8.99.8s6.36-.27,8.86-.8c2.51-.53,4.44-1.52,5.8-2.96,1.36-1.44,2.04-3.54,2.04-6.29Z"/>
    <path class="st7" d="M721.43,45.11v4.12h39.17v9.79h-52.05V26.04h51.95v9.79h-39.06v4.12h31.95v5.15h-31.95Z"/>
  </g>
  <line class="st4" x1="88.23" y1="17.23" x2="88.23" y2="69.23"/>
  <g>
    <rect class="st2" x="3.87" y="22.11" width="49.68" height="34.91" rx="1.34" ry="1.34" transform="translate(-12.77 65.44) rotate(-86)"/>
    <rect class="st1" x="31.39" y="25.47" width="32.22" height="41.62" rx="1.34" ry="1.34" transform="translate(-2.36 2.55) rotate(-3)"/>
    <rect class="st0" x="38.1" y="38.9" width="34.91" height="29.54" rx="1.34" ry="1.34" transform="translate(.46 107.8) rotate(-88.5)"/>
    <rect class="st5" x="15.28" y="69.78" width="26.85" height="2.69" rx=".67" ry=".67" transform="translate(-1.85 .78) rotate(-1.5)"/>
    <g class="st3">
      <path class="st6" d="M18.22,41.19h5.13c.09.26.34.49.77.67.43.18,1,.32,1.72.41.72.09,1.56.14,2.51.14s1.68-.03,2.23-.08.93-.16,1.16-.3c.23-.14.34-.34.34-.59s-.18-.42-.55-.55c-.36-.13-1.01-.22-1.94-.27-.93-.05-2.23-.07-3.91-.07-1.25,0-2.33-.06-3.24-.18-.91-.12-1.65-.31-2.24-.56-.58-.26-1.01-.58-1.29-.98-.28-.39-.41-.87-.41-1.42,0-.95.32-1.74.97-2.36s1.62-1.08,2.93-1.39c1.31-.31,2.95-.46,4.92-.46,2.88,0,5.08.42,6.61,1.25,1.52.83,2.28,2.03,2.28,3.6h-4.87c-.06-.41-.45-.73-1.17-.95-.71-.22-1.73-.33-3.05-.33s-2.27.08-2.9.23c-.63.15-.95.41-.95.77,0,.19.09.34.26.45s.48.2.91.27c.43.07,1.04.12,1.83.14.79.03,1.79.04,3.01.04,1.34,0,2.48.07,3.42.2.94.13,1.7.33,2.28.59.58.26,1.01.6,1.27,1.01s.39.89.39,1.44c0,.95-.3,1.73-.9,2.33-.6.6-1.55,1.05-2.86,1.33-1.3.29-3.01.43-5.11.43-1.19,0-2.28-.07-3.28-.21-1-.14-1.88-.34-2.66-.61s-1.43-.6-1.97-1c-.54-.4-.95-.84-1.23-1.33s-.42-1.04-.42-1.64Z"/>
    </g>
    <g class="st3">
      <path class="st6" d="M41.46,44.32h4.7v12.03h-4.7v-12.03Z"/>
    </g>
    <g class="st3">
      <path class="st6" d="M65.89,64.32h-2.82l10.26-10.6h4.7v12.03h-4.7v-8.2l1.41.58-7.43,7.61h-5.64l-7.44-7.59,1.43-.58v8.18h-4.7v-12.03h4.7l10.23,10.6Z"/>
    </g>
  </g>
</svg>