<?xml version="1.0" encoding="UTF-8"?>
<svg id="Layer_1" xmlns="http://www.w3.org/2000/svg" version="1.1" viewBox="0 0 120 120">
  <!-- Generator: Adobe Illustrator 29.4.0, SVG Export Plug-In . SVG Version: 2.1.0 Build 152)  -->
  <defs>
    <style>
      .st0 {
        opacity: .12;
      }

      .st0, .st1, .st2, .st3, .st4 {
        isolation: isolate;
      }

      .st0, .st5 {
        fill: #f0ebe0;
      }

      .st1 {
        opacity: .3;
      }

      .st1, .st4 {
        fill: #d94f2a;
      }

      .st2 {
        fill: #1f9080;
        opacity: .9;
      }

      .st4 {
        opacity: .7;
      }
    </style>
  </defs>
  <rect class="st2" x="1.09" y="28.55" width="74" height="52" rx="2" ry="2" transform="translate(-18.98 88.73) rotate(-86)"/>
  <rect class="st1" x="42.09" y="33.55" width="48" height="62" rx="2" ry="2" transform="translate(-3.29 3.55) rotate(-3)"/>
  <rect class="st0" x="52.09" y="53.55" width="52" height="44" rx="2" ry="2" transform="translate(.52 151.63) rotate(-88.5)"/>
  <rect class="st4" x="18.09" y="99.55" width="40" height="4" rx="1" ry="1" transform="translate(-2.65 1.03) rotate(-1.5)"/>
  <g class="st3">
    <path class="st5" d="M22.47,56.97h7.64c.13.39.51.72,1.15.99.63.27,1.49.48,2.56.62,1.07.14,2.32.21,3.74.21s2.51-.04,3.32-.13,1.39-.23,1.72-.45c.34-.21.5-.51.5-.88s-.27-.63-.81-.83c-.54-.2-1.5-.33-2.88-.41-1.38-.07-3.32-.11-5.82-.11-1.87,0-3.48-.09-4.83-.27-1.35-.18-2.46-.46-3.33-.84-.87-.38-1.51-.87-1.92-1.46-.41-.59-.62-1.29-.62-2.11,0-1.42.48-2.59,1.44-3.51s2.42-1.61,4.37-2.07c1.95-.46,4.39-.69,7.32-.69,4.29,0,7.57.62,9.84,1.86,2.27,1.24,3.4,3.03,3.4,5.36h-7.25c-.09-.62-.67-1.09-1.74-1.41-1.06-.33-2.58-.49-4.54-.49s-3.38.11-4.33.34c-.94.22-1.41.61-1.41,1.15,0,.28.13.5.39.67s.71.3,1.36.41c.64.1,1.55.17,2.73.21,1.18.04,2.67.06,4.48.06,2,0,3.7.1,5.1.29,1.4.2,2.53.49,3.4.88.87.39,1.5.89,1.89,1.5s.59,1.32.59,2.14c0,1.42-.45,2.58-1.34,3.47-.9.9-2.31,1.56-4.26,1.99-1.94.43-4.48.64-7.62.64-1.77,0-3.4-.1-4.89-.31-1.48-.21-2.81-.51-3.96-.91s-2.14-.9-2.94-1.48c-.8-.59-1.41-1.25-1.83-1.99s-.63-1.55-.63-2.45Z"/>
  </g>
  <g class="st3">
    <path class="st5" d="M57.09,61.63h7v17.92h-7v-17.92Z"/>
  </g>
  <g class="st3">
    <path class="st5" d="M93.48,91.42h-4.2l15.29-15.79h7v17.92h-7v-12.21l2.1.87-11.06,11.34h-8.4l-11.09-11.31,2.13-.87v12.18h-7v-17.92h7l15.23,15.79Z"/>
  </g>
</svg>